<?xml version="1.0" encoding="utf-8"?>
<!-- Generator: Adobe Illustrator 16.0.0, SVG Export Plug-In . SVG Version: 6.00 Build 0)  -->
<!DOCTYPE svg PUBLIC "-//W3C//DTD SVG 1.1//EN" "http://www.w3.org/Graphics/SVG/1.1/DTD/svg11.dtd">
<svg version="1.1" id="Layer_1" xmlns="http://www.w3.org/2000/svg" xmlns:xlink="http://www.w3.org/1999/xlink" x="0px" y="0px"
	 width="21px" height="22px" viewBox="0 0 21 22" enable-background="new 0 0 21 22" xml:space="preserve">
<path fill="#CACACA" d="M19.251,2.025h-2.845V0.648c0-0.381-0.295-0.689-0.656-0.689c-0.363,0-0.656,0.308-0.656,0.689v1.377h-3.938
	V0.648c0-0.381-0.294-0.689-0.655-0.689c-0.363,0-0.657,0.308-0.657,0.689v1.377H5.906V0.648c0-0.381-0.294-0.689-0.656-0.689
	c-0.363,0-0.657,0.308-0.657,0.689v1.377H1.75C0.784,2.025,0,2.847,0,3.862v16.302C0,21.18,0.784,22,1.75,22h17.501
	C20.217,22,21,21.18,21,20.164V3.862C21,2.847,20.217,2.025,19.251,2.025z M19.688,20.164c0.007,0.248-0.189,0.453-0.436,0.459
	c-0.001,0-0.001,0-0.001,0H1.75c-0.248-0.006-0.443-0.211-0.438-0.459V3.862C1.307,3.615,1.502,3.41,1.75,3.403h2.844v1.378
	c0,0.381,0.294,0.689,0.657,0.689c0.362,0,0.656-0.308,0.656-0.689V3.403h3.938v1.378c0,0.381,0.294,0.689,0.657,0.689
	c0.361,0,0.655-0.308,0.655-0.689V3.403h3.938v1.378c0,0.381,0.293,0.689,0.655,0.689s0.656-0.308,0.656-0.689V3.403h2.845
	c0.241,0,0.438,0.206,0.438,0.459v16.302H19.688z"/>
<path fill="#CACACA" d="M4.594,8.225h2.625v2.066H4.594V8.225z M4.594,11.668h2.625v2.066H4.594V11.668z M4.594,15.111h2.625v2.066
	H4.594V15.111z M9.188,15.111h2.625v2.066H9.188V15.111z M9.188,11.668h2.625v2.066H9.188V11.668z M9.188,8.225h2.625v2.066H9.188
	V8.225z M13.781,15.111h2.625v2.066h-2.625V15.111z M13.781,11.668h2.625v2.066h-2.625V11.668z M13.781,8.225h2.625v2.066h-2.625
	V8.225z"/>
</svg>
