<?xml version="1.0" encoding="utf-8"?>
<!-- Generator: Adobe Illustrator 16.0.0, SVG Export Plug-In . SVG Version: 6.00 Build 0)  -->
<!DOCTYPE svg PUBLIC "-//W3C//DTD SVG 1.1//EN" "http://www.w3.org/Graphics/SVG/1.1/DTD/svg11.dtd">
<svg version="1.1" id="Layer_1" xmlns="http://www.w3.org/2000/svg" xmlns:xlink="http://www.w3.org/1999/xlink" x="0px" y="0px"
	 width="1133.861px" height="1700.789px" viewBox="0 0 1133.861 1700.789" enable-background="new 0 0 1133.861 1700.789"
	 xml:space="preserve">
<title>logo-htmlacademy-small1</title>
<path fill="#D0E2EE" d="M468.001,938.886c1.963-0.078,3.905-0.432,5.771-1.049v13.952c-3.955,1.496-8.152,2.243-12.38,2.203
	c-7.484,0.62-14.532-3.6-17.52-10.49c-9.301,7.543-20.969,11.556-32.941,11.33c-15.842,0-30.528-8.708-30.528-26.752
	c0-22.346,20.981-29.27,38.921-29.27c7.656,0.122,15.282,1,22.766,2.622v-3.147c0-10.49-7.974-18.568-22.976-18.568
	c-10.844,0.021-21.564,2.309-31.473,6.714v-17.834c10.777-3.691,22.075-5.639,33.466-5.771c24.759,0,39.971,11.75,39.971,38.292
	v31.473c-0.302,3.114,1.978,5.884,5.092,6.186c0.017,0.001,0.032,0.003,0.049,0.004h1.783V938.886z M400.439,927.031
	c0.552,7.802,7.324,13.68,15.127,13.128c0.063-0.005,0.127-0.01,0.189-0.015h1.154c9.49,0.017,18.593-3.761,25.283-10.491v-14.896
	c-6.246-1.328-12.604-2.065-18.988-2.203c-10.491,0-22.66,3.462-22.66,14.478l0,0H400.439z M530.107,862.932
	c9.428-0.227,18.741,2.093,26.962,6.714v18.044c-7.123-4.815-15.531-7.375-24.129-7.344c-15.905-0.96-29.576,11.154-30.537,27.059
	c-0.96,15.905,11.154,29.577,27.059,30.537c1.158,0.07,2.32,0.07,3.479,0c8.931-0.031,17.705-2.343,25.492-6.714v17.939
	c-9.072,4.164-18.975,6.209-28.954,5.979c-24.294,1.558-45.268-16.835-46.895-41.124c0-1.469,0-2.903,0-4.302
	c-0.824-25.017,18.787-45.964,43.804-46.788c0.017,0,0.032-0.001,0.048-0.001h3.986H530.107z M657.782,938.886
	c1.963-0.078,3.905-0.432,5.77-1.049v13.952c-3.954,1.496-8.151,2.243-12.379,2.203c-7.485,0.62-14.532-3.6-17.52-10.49
	c-9.301,7.543-20.969,11.556-32.941,11.33c-15.842,0-30.529-8.708-30.529-26.752c0-22.346,20.982-29.27,38.922-29.27
	c7.656,0.122,15.281,1,22.765,2.622v-3.147c0-10.49-7.973-18.568-22.975-18.568c-10.844,0.021-21.564,2.309-31.473,6.714v-17.834
	c10.777-3.691,22.074-5.639,33.466-5.771c24.759,0,39.971,11.75,39.971,38.292v31.473c-0.302,3.114,1.978,5.884,5.092,6.186
	c0.017,0.001,0.032,0.003,0.049,0.004h1.783V938.886z M590.22,927.031c0.547,7.803,7.315,13.685,15.118,13.138
	c0.101-0.007,0.202-0.016,0.304-0.024h1.153c9.49,0.017,18.593-3.761,25.283-10.491v-14.896c-6.246-1.328-12.604-2.065-18.988-2.203
	c-11.12,0-22.66,3.462-22.66,14.478l0,0H590.22z M765.839,824.744v127.989h-17.311v-13.848
	c-7.902,10.46-20.359,16.474-33.466,16.156c-25.436-1.718-44.662-23.73-42.944-49.166c1.556-23.042,19.902-41.389,42.944-42.944
	c12.008-0.416,23.564,4.593,31.473,13.638v-51.825H765.839z M718.314,879.507c-15.991,0-28.955,12.964-28.955,28.955
	s12.964,28.955,28.955,28.955c12.215,0.206,23.334-7.014,28.116-18.255v-20.981c-4.896-11.035-15.834-18.149-27.906-18.149
	L718.314,879.507z M828.784,862.932c34.726,0,46.79,28.115,41.125,53.398h-65.254c2.203,15.736,17.52,22.136,33.466,22.136
	c9.579,0.032,19.043-2.083,27.696-6.189v16.785c-9.937,4.24-20.673,6.28-31.473,5.98c-26.542,0-49.832-14.897-49.832-46.37
	c-1.238-24.188,17.366-44.799,41.554-46.036c0.137-0.007,0.273-0.014,0.41-0.02h2.308V862.932z M829.728,879.087
	c-13.146-0.963-24.593,8.89-25.598,22.031v0.63h48.783c0.972-11.548-7.601-21.696-19.147-22.669
	c-1.204-0.102-2.415-0.099-3.618,0.008H829.728z M889.842,952.524v-87.18h17.31v10.491c7.437-8.316,18.01-13.147,29.165-13.323
	c11.259-0.7,21.959,4.975,27.696,14.688c7.881-8.574,18.888-13.604,30.528-13.953c17.708-0.883,32.777,12.757,33.66,30.465
	c0.074,1.49,0.045,2.983-0.089,4.47v54.553h-19.933v-54.028c0.975-9.16-5.662-17.377-14.823-18.352
	c-0.024-0.002-0.05-0.005-0.074-0.008h-2.728c-8.613,0.537-16.555,4.834-21.717,11.75v60.638h-19.933v-54.028
	c0.901-9.168-5.801-17.331-14.969-18.232c-0.081-0.008-0.162-0.015-0.243-0.021h-2.098c-9.361,0.823-17.865,5.787-23.186,13.533
	v59.063h-18.148L889.842,952.524z M1113.403,865.135h19.933l-41.02,99.244c-9.441,22.765-21.926,30.004-35.145,30.004
	c-3.891-0.038-7.764-0.531-11.54-1.469v-16.471c2.893,0.865,5.898,1.29,8.917,1.259c9.442,0,16.576-6.714,21.717-19.933l1.783-4.406
	l-41.964-88.124h20.982l30.004,65.988L1113.403,865.135z M406.314,672.206v49.937c7.47-7.604,17.667-11.909,28.325-11.959
	c18.797-1.123,34.945,13.205,36.067,32.002c0.073,1.221,0.08,2.445,0.021,3.667v54.028H451.11V748.37
	c1.158-10.423-6.353-19.812-16.775-20.97c-0.038-0.004-0.076-0.008-0.114-0.012h-3.147c-10.006,0.602-19.089,6.044-24.339,14.582
	v57.91h-19.934V672.206h19.934H406.314z M523.918,681.123v31.473h31.473v16.786h-31.473v39.97c0,11.541,5.245,15.317,16.575,15.317
	c6.078,0.001,12.099-1.175,17.729-3.462v16.785c-7.472,2.496-15.307,3.736-23.185,3.672c-14.659,1.847-28.039-8.54-29.885-23.199
	c-0.232-1.84-0.271-3.698-0.119-5.546v-43.747h-16.366v-17.101h15.736v-26.437L523.918,681.123z M580.568,799.776v-87.494h17.415
	v10.491c7.394-8.329,17.926-13.196,29.061-13.429c10.96-0.691,21.423,4.66,27.276,13.953c7.881-8.574,18.888-13.604,30.528-13.953
	c17.716-0.69,32.638,13.111,33.329,30.827c0.062,1.616,0.003,3.235-0.178,4.842v54.658h-19.933v-54.028
	c0.975-9.161-5.662-17.377-14.822-18.352c-0.025-0.003-0.05-0.005-0.075-0.008h-2.413c-8.613,0.537-16.555,4.834-21.716,11.75
	v60.638h-19.933v-54.028c0.975-9.161-5.662-17.377-14.823-18.352c-0.024-0.003-0.049-0.005-0.074-0.008h-2.413
	c-9.36,0.824-17.864,5.787-23.185,13.533v59.064h-18.045V799.776z M746.64,672.102h19.198v127.465H746.64V672.102z M154.322,656.89
	h-1.679L0,673.045v279.794l152.644,90.852l152.643-90.852V673.045L154.322,656.89z M285.459,941.194l-132.815,79.102L19.932,941.404
	V826.633l132.081,78.682v13.848l-90.536-53.503v13.743l91.061,54.657v14.583l-90.956-54.134v14.163l91.062,54.657l91.796-54.972
	v-59.379l40.914-24.234v116.659L285.459,941.194z M285.459,809.742l-36.509,20.981l-16.785,10.491l-79.941-47.943v13.743
	l68.086,41.124l0,0l-1.469,0.944l-10.49,5.665l-56.337-33.57v14.058l44.481,26.437l-10.49,7.029l-33.571-19.933v13.743
	l22.031,13.009l-22.346,13.219L20.982,810.581l131.241-79.102L285.459,809.742z M285.459,795.895l-133.445-78.577L20.038,795.895
	v-104.91l132.71-13.952l132.711,13.952V795.895L285.459,795.895z"/>
</svg>
