<?xml version="1.0" encoding="utf-8"?>
<!-- Generator: Adobe Illustrator 16.0.0, SVG Export Plug-In . SVG Version: 6.00 Build 0)  -->
<!DOCTYPE svg PUBLIC "-//W3C//DTD SVG 1.1//EN" "http://www.w3.org/Graphics/SVG/1.1/DTD/svg11.dtd">
<svg version="1.1" id="Layer_1" xmlns="http://www.w3.org/2000/svg" xmlns:xlink="http://www.w3.org/1999/xlink" x="0px" y="0px"
	 width="17px" height="15px" viewBox="0 0 17 15" enable-background="new 0 0 17 15" xml:space="preserve">
<path fill="#88B6D1" d="M10.95,0.144c1.685-0.496,2.983,0.27,3.577,1.179c0.673-0.23,1.33-0.48,2.011-0.708
	c-0.013,0.687-0.327,1.333-0.856,1.769c0.685,0.17,1.303-0.491,1.303-0.491c-0.168,1-1.006,1.788-1.562,2.024
	c-0.23,6.75-3.175,11.217-10.077,11.082H4.899c-0.41,0-4.164-0.46-4.898-1.887c2.271,0.195,3.893-0.422,4.693-1.178
	c-0.96-0.299-2.679-0.477-2.979-2.949c0.349,0.105,0.564,0.228,1.19,0.119C1.705,8.247,0.374,7.53,0.448,5.33
	c0.285,0.328,1.067,0.536,1.34,0.472c-0.703-0.241-1.97-3.36-0.894-4.952c1.818,1.854,3.735,3.606,7.152,3.773
	C8.254,2.33,9.184,0.793,10.95,0.144z"/>
</svg>
